<?xml version="1.0" standalone="no"?>
<!DOCTYPE svg PUBLIC "-//W3C//DTD SVG 20010904//EN"
 "http://www.w3.org/TR/2001/REC-SVG-20010904/DTD/svg10.dtd">
<svg version="1.0" xmlns="http://www.w3.org/2000/svg"
 width="720.000000pt" height="1080.000000pt" viewBox="0 0 720.000000 1080.000000"
 preserveAspectRatio="xMidYMid meet">

<g transform="translate(0.000000,1080.000000) scale(0.100000,-0.100000)"
fill="#000000" stroke="none">
<path d="M1807 8304 c-3 -4 13 -43 37 -88 24 -44 65 -121 91 -171 26 -49 52
-96 58 -103 10 -13 -12 -60 -134 -284 -33 -59 -59 -109 -59 -112 0 -3 196 -6
435 -6 239 0 435 3 435 8 0 4 -15 32 -33 62 -18 30 -47 80 -64 110 -44 79
-174 303 -183 315 -30 42 -11 39 53 -8 39 -29 154 -113 255 -186 128 -94 187
-143 197 -165 22 -46 81 -105 120 -122 54 -22 206 -19 254 6 78 39 141 145
141 235 0 90 -65 197 -144 240 -20 11 -36 22 -36 26 0 3 23 18 50 33 90 49
240 178 240 206 0 11 -1702 15 -1713 4z"/>
<path d="M3830 8300 c0 -31 181 -183 264 -220 l39 -18 -39 -20 c-49 -26 -96
-74 -126 -132 -27 -52 -31 -150 -9 -213 15 -43 97 -132 136 -147 14 -6 70 -10
123 -10 89 0 100 2 139 28 47 31 94 86 113 132 7 16 15 30 19 30 4 0 22 15 41
33 19 17 71 63 115 101 148 128 230 201 238 211 21 25 -13 -53 -119 -275 -63
-132 -114 -245 -114 -250 0 -6 150 -10 410 -10 418 0 432 1 401 35 -4 6 -43
78 -86 160 -43 83 -83 158 -88 167 -11 17 8 58 137 300 26 49 44 92 41 98 -8
13 -1635 14 -1635 0z"/>
<path d="M2870 6850 l0 -80 805 0 805 0 0 80 0 80 -805 0 -805 0 0 -80z m141
40 c38 -21 18 -80 -28 -80 -53 0 -49 76 5 89 2 1 12 -4 23 -9z m173 -6 c33
-32 10 -79 -36 -72 -30 4 -38 56 -12 75 23 17 29 16 48 -3z m165 6 c44 -23 31
-80 -18 -80 -42 0 -59 59 -23 79 21 13 20 13 41 1z m355 -6 c31 -30 13 -74
-30 -74 -12 0 -27 7 -34 15 -16 19 -5 62 18 68 29 8 30 8 46 -9z m170 0 c33
-32 14 -77 -30 -72 -23 2 -30 8 -32 31 -6 49 30 73 62 41z m184 -37 c-3 -29
-6 -32 -38 -32 -32 0 -35 3 -38 31 -2 24 2 33 20 41 35 16 60 -1 56 -40z m156
40 c26 -19 18 -71 -12 -75 -13 -2 -30 2 -38 8 -19 17 -18 57 4 69 22 13 25 13
46 -2z m170 0 c26 -19 18 -71 -12 -75 -46 -7 -69 40 -36 72 19 19 25 20 48 3z
m-850 -13 c19 -18 19 -20 6 -45 -12 -21 -50 -25 -68 -7 -13 13 -16 50 -5 61
12 13 51 7 67 -9z"/>
<path d="M2825 6593 c1 -41 5 -48 23 -51 22 -3 22 -6 22 -177 0 -172 0 -174
-22 -177 -20 -3 -23 -9 -23 -48 l0 -45 218 -3 217 -2 0 100 0 100 -60 0 c-41
0 -60 -4 -61 -12 -1 -7 -3 -29 -4 -48 -2 -19 -4 -37 -4 -40 -1 -3 -24 -3 -52
0 l-52 5 1 170 c0 94 1 173 1 177 1 4 8 5 16 2 12 -5 15 4 15 45 l0 51 -119 0
-118 0 2 -47z"/>
<path d="M3442 6594 c3 -41 6 -49 23 -49 19 0 20 -7 20 -180 0 -179 0 -180
-22 -183 -20 -3 -23 -9 -23 -48 l0 -45 193 3 c178 3 195 5 240 27 51 25 65 46
74 112 7 49 -19 102 -63 125 -38 21 -42 30 -16 39 57 19 77 132 31 181 -46 50
-79 57 -277 62 l-183 4 3 -48z m306 -86 c9 -19 10 -38 4 -60 -8 -31 -11 -33
-60 -36 l-52 -3 0 66 0 66 47 -3 c41 -3 50 -7 61 -30z m-5 -189 c29 -16 37
-28 37 -62 0 -17 -10 -38 -25 -53 -20 -20 -33 -25 -68 -22 l-42 3 -3 73 -3 72
41 0 c23 0 51 -5 63 -11z"/>
<path d="M4122 6594 c2 -36 7 -48 17 -46 8 2 18 -3 22 -10 10 -15 12 -318 3
-342 -3 -9 -15 -16 -25 -16 -16 0 -19 -8 -19 -45 l0 -45 176 0 c229 0 280 15
320 92 31 59 5 141 -56 176 -34 20 -37 28 -12 36 49 16 71 125 35 175 -41 55
-81 65 -281 69 l-183 4 3 -48z m302 -76 c19 -27 20 -67 3 -90 -8 -10 -31 -17
-57 -19 l-45 -4 -3 68 -3 67 45 0 c35 0 48 -5 60 -22z m17 -205 c5 -5 12 -26
16 -46 4 -29 1 -40 -21 -62 -22 -21 -34 -26 -69 -23 l-42 3 -3 74 -3 74 56 -5
c31 -3 60 -9 66 -15z"/>
<path d="M3163 5273 c70 -2 184 -2 255 0 70 1 12 3 -128 3 -140 0 -198 -2
-127 -3z"/>
<path d="M3798 5273 c6 -2 18 -2 25 0 6 3 1 5 -13 5 -14 0 -19 -2 -12 -5z"/>
<path d="M3943 5273 c59 -2 155 -2 215 0 59 1 10 3 -108 3 -118 0 -167 -2
-107 -3z"/>
<path d="M5816 4630 c-10 -17 -23 -41 -30 -53 -6 -12 -24 -41 -39 -64 -50 -79
-36 -102 122 -198 l123 -74 19 22 c27 32 23 51 -13 70 -18 9 -46 25 -63 35
-16 9 -51 30 -77 46 -27 15 -48 33 -48 38 0 6 20 44 45 85 25 40 45 78 45 83
0 8 -50 40 -62 40 -2 0 -12 -14 -22 -30z"/>
<path d="M1269 4505 c-85 -57 -166 -114 -181 -127 l-26 -23 121 -177 c67 -97
126 -177 130 -177 5 -1 22 8 38 20 l29 20 -67 97 c-37 53 -79 113 -94 132 -14
19 -29 45 -33 56 -7 22 3 29 250 195 13 9 27 18 30 22 6 6 -26 67 -36 67 -4 0
-76 -47 -161 -105z"/>
<path d="M5545 4228 c-170 -187 -171 -192 -32 -312 84 -72 89 -75 125 -76 38
0 49 9 161 139 l81 95 -24 23 c-14 13 -29 23 -34 23 -7 0 -154 -164 -174 -193
-9 -14 -38 10 -38 30 0 14 70 102 132 166 16 16 28 34 28 40 -1 7 -23 32 -51
56 -38 33 -61 45 -92 48 -40 5 -45 2 -82 -39z m110 -69 c7 -20 1 -31 -60 -102
-41 -49 -64 -58 -86 -31 -16 20 -4 42 64 113 49 51 71 57 82 20z"/>
<path d="M1618 4037 c-101 -99 -138 -148 -138 -182 0 -28 14 -46 111 -139
l111 -106 28 23 c16 12 29 25 29 28 1 4 -42 46 -94 95 -70 64 -95 93 -93 108
7 48 33 32 176 -107 l53 -52 55 60 c63 69 72 91 50 132 -12 25 -116 125 -175
170 -32 24 -67 15 -113 -30z m152 -112 c63 -63 63 -65 45 -85 -10 -11 -22 -20
-27 -20 -4 0 -38 29 -75 64 -67 64 -68 64 -49 85 11 12 24 21 30 21 7 0 40
-29 76 -65z"/>
<path d="M3566 3938 c3 -4 49 -8 102 -7 75 1 90 3 67 10 -36 11 -176 9 -169
-3z"/>
<path d="M5189 3868 c-24 -17 -50 -38 -57 -45 -7 -7 -16 -13 -20 -13 -4 0 -24
-16 -44 -36 -31 -28 -38 -42 -38 -72 0 -42 8 -55 93 -161 l60 -73 43 5 c34 3
60 18 120 66 73 58 78 60 96 45 28 -26 23 -37 -38 -85 -31 -24 -68 -53 -82
-65 l-25 -21 23 -31 23 -31 97 75 c100 76 118 102 104 147 -5 18 -112 168
-134 187 -3 3 -25 31 -49 63 -68 89 -100 97 -172 45z m132 -124 c41 -52 50
-70 42 -82 -17 -28 -133 -112 -146 -106 -15 7 -107 130 -107 143 0 13 129 111
146 111 7 0 36 -30 65 -66z"/>
<path d="M2092 3802 c-87 -144 -152 -256 -152 -261 0 -3 -9 -17 -20 -31 -11
-14 -20 -32 -20 -40 0 -8 51 -45 117 -85 195 -118 192 -116 237 -113 38 3 44
7 84 68 23 35 42 75 42 88 0 13 9 37 20 53 12 15 30 49 41 74 20 45 20 47 2
77 -10 17 -36 42 -58 55 -22 13 -56 32 -75 43 -19 11 -68 41 -108 65 -41 25
-77 45 -80 45 -4 0 -17 -17 -30 -38z m156 -130 c42 -27 85 -51 95 -55 23 -9
22 -48 -3 -75 -12 -12 -22 -22 -25 -22 -6 0 -189 112 -202 124 -10 9 -8 18 7
44 11 17 27 32 35 32 8 0 50 -22 93 -48z m-85 -157 c144 -85 135 -76 112 -118
-11 -20 -25 -39 -31 -41 -7 -3 -45 16 -86 41 -40 25 -90 54 -110 64 -21 11
-38 25 -38 32 0 18 38 77 50 77 6 0 52 -25 103 -55z"/>
<path d="M4878 3652 c-1 -4 -37 -25 -78 -46 -139 -70 -142 -83 -56 -248 35
-67 70 -127 78 -132 10 -6 24 -3 41 9 l27 17 -61 114 c-34 63 -59 120 -56 127
3 7 22 21 43 32 22 11 58 30 81 43 l42 23 -16 35 c-16 32 -37 44 -45 26z"/>
<path d="M2590 3428 c-11 -12 -36 -71 -55 -130 -50 -153 -45 -161 127 -219
101 -34 114 -37 138 -24 39 20 44 30 85 152 49 149 45 155 -117 212 -104 37
-149 39 -178 9z m150 -84 c44 -14 82 -30 86 -35 3 -5 -4 -36 -15 -69 -12 -33
-21 -66 -21 -74 0 -34 -25 -36 -106 -10 -43 15 -83 31 -89 35 -14 14 43 179
62 179 2 0 40 -12 83 -26z"/>
<path d="M4350 3414 c-112 -38 -140 -59 -140 -106 0 -30 24 -119 41 -150 5
-10 9 -26 9 -36 0 -27 45 -72 72 -73 41 -2 110 12 148 30 8 4 45 16 83 27 69
19 79 32 61 78 -9 23 -26 20 -139 -19 -126 -44 -147 -45 -143 -8 2 22 10 29
38 37 94 26 205 66 208 75 8 23 -40 141 -65 161 -34 27 -50 25 -173 -16z m135
-87 c0 -26 -6 -31 -70 -53 -88 -31 -110 -29 -110 11 0 28 4 31 70 51 91 29
110 27 110 -9z"/>
<path d="M3810 3393 c-30 -1 -92 -8 -138 -14 l-83 -11 4 -82 c2 -44 10 -143
17 -219 l14 -139 85 5 c249 16 330 33 345 72 9 25 7 105 -5 150 -6 22 -16 78
-24 124 -20 123 -22 124 -215 114z m124 -89 c10 -27 7 -61 -8 -73 -8 -6 -65
-14 -128 -18 l-115 -6 -6 31 c-11 53 -2 60 76 66 64 5 97 8 158 14 9 1 20 -5
23 -14z m38 -190 c5 -16 6 -39 3 -51 -5 -23 -16 -25 -192 -38 l-82 -6 -7 35
c-3 20 -4 42 -1 50 7 16 50 26 131 27 33 1 75 5 91 9 42 10 48 8 57 -26z"/>
<path d="M3076 3319 c-6 -21 -36 -280 -36 -310 0 -23 6 -28 36 -34 20 -3 37
-5 38 -3 2 2 8 57 15 123 6 66 17 126 24 132 9 10 32 10 96 3 46 -5 86 -12 89
-15 4 -4 -13 -221 -21 -257 -1 -6 13 -15 31 -18 44 -10 50 3 66 158 19 179 10
194 -141 213 -177 22 -192 22 -197 8z"/>
</g>
</svg>
